<?xml version="1.0" standalone="no"?>
<!DOCTYPE svg PUBLIC "-//W3C//DTD SVG 20010904//EN"
 "http://www.w3.org/TR/2001/REC-SVG-20010904/DTD/svg10.dtd">
<svg version="1.0" xmlns="http://www.w3.org/2000/svg"
 width="1244.000000pt" height="1996.000000pt" viewBox="0 0 1244.000000 1996.000000"
 preserveAspectRatio="xMidYMid meet">

<g transform="translate(0.000000,1996.000000) scale(0.100000,-0.100000)"
fill="#000000" stroke="none">
<path d="M1385 19903 c-85 -20 -329 -100 -368 -121 -104 -56 -190 -192 -230
-365 -21 -91 -21 -102 -24 -1649 -2 -857 -6 -1558 -9 -1558 -3 0 -31 22 -61
49 -64 57 -147 103 -216 120 -54 13 -153 6 -202 -14 -77 -31 -145 -127 -145
-204 0 -118 81 -323 202 -508 27 -41 70 -114 95 -162 26 -47 54 -97 64 -111 9
-14 22 -44 28 -68 7 -24 39 -78 74 -125 35 -45 86 -113 115 -150 42 -56 52
-75 52 -108 0 -39 0 -39 -72 -73 -40 -19 -98 -41 -129 -50 -73 -21 -133 -62
-240 -164 -96 -91 -158 -189 -185 -291 -26 -102 -18 -163 57 -427 57 -203 107
-484 87 -495 -152 -88 -238 -302 -238 -593 0 -72 -5 -149 -11 -171 -22 -75
-14 -172 19 -258 17 -43 43 -94 59 -114 15 -20 46 -61 69 -91 l41 -55 -21 -41
c-17 -34 -21 -70 -28 -216 -7 -178 -6 -203 17 -300 7 -30 16 -89 19 -131 9
-130 47 -202 155 -298 40 -36 98 -102 131 -150 32 -47 109 -144 169 -216 87
-102 111 -136 111 -160 0 -16 6 -66 14 -110 49 -280 193 -474 401 -544 58 -20
99 -25 245 -30 l175 -6 155 -126 c85 -69 198 -157 250 -196 52 -39 138 -108
190 -155 153 -136 245 -205 326 -243 42 -20 101 -53 133 -74 73 -50 181 -104
260 -130 65 -21 121 -58 267 -174 84 -66 134 -97 184 -112 14 -4 43 -25 65
-46 22 -21 59 -52 83 -68 23 -17 42 -35 42 -40 0 -5 16 -33 36 -62 20 -30 51
-88 68 -129 18 -41 56 -105 84 -143 28 -37 84 -122 123 -190 153 -259 317
-519 439 -697 70 -102 160 -240 200 -308 59 -100 455 -890 539 -1075 143 -314
567 -1141 794 -1547 371 -664 1047 -1730 1874 -2955 81 -121 224 -341 317
-490 204 -324 299 -469 504 -762 l155 -223 1363 0 1364 0 0 763 0 764 -26 64
c-40 99 -357 748 -436 894 -152 278 -340 557 -694 1033 -304 407 -1253 1586
-1622 2015 -92 107 -246 286 -342 398 -355 413 -472 566 -813 1064 -72 105
-217 309 -322 455 -354 491 -632 897 -883 1293 -183 287 -363 658 -450 927
-113 350 -118 366 -177 640 l-36 165 17 230 c24 332 11 474 -102 1185 -19 118
-48 284 -74 415 -42 214 -53 309 -65 565 -9 186 -28 246 -195 620 -65 148
-173 486 -291 915 -64 231 -85 302 -148 485 -38 112 -71 233 -91 335 -18 88
-41 194 -51 235 -11 41 -29 131 -40 200 -28 164 -40 194 -96 227 -40 23 -52
25 -116 20 -40 -2 -80 -8 -89 -12 -17 -7 -18 57 -18 1251 0 1220 -3 1354 -31
1489 -47 223 -173 431 -317 524 -83 53 -127 68 -752 261 -221 68 -665 206
-1065 330 -214 67 -426 130 -470 141 -74 17 -191 23 -240 12z"/>
</g>
</svg>
