<?xml version="1.0" standalone="no"?>
<!DOCTYPE svg PUBLIC "-//W3C//DTD SVG 20010904//EN"
 "http://www.w3.org/TR/2001/REC-SVG-20010904/DTD/svg10.dtd">
<svg version="1.0" xmlns="http://www.w3.org/2000/svg"
 width="1180.000000pt" height="1996.000000pt" viewBox="0 0 1180.000000 1996.000000"
 preserveAspectRatio="xMidYMid meet">

<g transform="translate(0.000000,1996.000000) scale(0.100000,-0.100000)"
fill="#000000" stroke="none">
<path d="M9935 19006 c-38 -8 -263 -68 -500 -135 -236 -67 -558 -158 -715
-203 -685 -193 -779 -220 -840 -249 -190 -89 -301 -245 -366 -519 -16 -69 -18
-164 -23 -1147 l-6 -1073 -43 56 c-54 69 -127 106 -213 108 -46 1 -63 -4 -86
-22 -15 -12 -38 -26 -50 -32 -31 -13 -55 -114 -72 -298 -17 -187 -75 -396
-181 -652 -38 -91 -77 -194 -88 -230 -52 -167 -73 -242 -92 -330 -33 -151
-115 -454 -170 -626 -35 -111 -75 -210 -134 -329 -100 -201 -161 -342 -175
-407 -7 -30 -10 -167 -9 -355 2 -248 -1 -332 -15 -433 -22 -161 -48 -597 -48
-816 1 -155 12 -358 27 -459 11 -78 64 -272 109 -403 40 -114 47 -145 50 -230
8 -228 -48 -577 -136 -843 -46 -137 -166 -418 -236 -549 -172 -321 -515 -849
-960 -1475 -86 -121 -242 -346 -346 -500 -350 -517 -503 -719 -942 -1242 -349
-414 -536 -649 -1076 -1353 -515 -671 -571 -745 -783 -1054 -348 -506 -491
-761 -700 -1251 -59 -137 -121 -281 -138 -320 -45 -103 -112 -290 -133 -370
-23 -87 -29 -95 -49 -59 -14 26 -15 -25 -16 -588 l0 -618 1409 0 1408 0 175
263 c97 144 239 366 318 492 270 437 304 491 440 695 200 301 632 972 785
1220 113 185 449 747 609 1020 250 429 720 1327 939 1795 467 1000 633 1339
757 1546 34 55 116 182 184 282 67 100 168 261 225 357 57 96 142 240 189 320
47 80 103 171 125 203 21 32 55 93 74 135 86 190 145 297 196 353 29 32 70 88
92 124 35 61 86 113 274 282 20 17 68 53 107 80 79 53 231 186 456 398 151
142 191 177 337 297 l81 68 113 0 c156 0 239 14 324 54 137 65 246 214 293
399 16 64 30 93 76 153 30 41 89 132 131 202 41 70 117 192 168 272 51 80 113
187 139 238 25 51 63 114 83 140 85 110 106 217 69 345 -13 45 -17 108 -19
303 l-3 246 73 101 c142 196 172 290 139 432 -16 68 -31 112 -115 344 -34 93
-39 115 -28 125 47 40 113 162 127 235 16 83 12 146 -16 276 -14 66 -32 174
-39 240 -33 305 -94 505 -178 582 -113 104 -383 213 -529 213 -37 0 -38 1 -38
38 0 27 12 54 46 102 101 145 132 199 149 255 9 32 62 147 117 254 56 108 116
225 135 261 18 36 49 113 68 172 29 90 35 122 35 197 0 105 -7 126 -56 181
-58 65 -98 80 -203 80 -101 0 -172 -24 -243 -80 -20 -17 -39 -30 -42 -30 -3 0
-6 467 -6 1038 0 577 -5 1080 -10 1135 -18 186 -66 312 -153 400 -65 66 -105
84 -297 136 -181 49 -240 55 -335 37z m-2445 -5643 c0 -197 -4 -343 -9 -337
-27 30 -53 145 -58 260 -5 106 -2 140 22 260 30 155 32 164 40 164 3 0 5 -156
5 -347z"/>
</g>
</svg>
